<svg width="64" height="64" viewBox="0 0 64 64" fill="none" xmlns="http://www.w3.org/2000/svg">
<path d="M24 46V48.6853C24.0001 49.7363 23.7932 50.7769 23.391 51.7479C22.9888 52.7188 22.3992 53.601 21.656 54.344L20 56H44L42.344 54.344C41.6008 53.601 41.0112 52.7188 40.609 51.7479C40.2068 50.7769 39.9999 49.7363 40 48.6853V46M56 14V40C56 41.5913 55.3679 43.1174 54.2426 44.2426C53.1174 45.3679 51.5913 46 50 46H14C12.4087 46 10.8826 45.3679 9.75736 44.2426C8.63214 43.1174 8 41.5913 8 40V14M56 14C56 12.4087 55.3679 10.8826 54.2426 9.75736C53.1174 8.63214 51.5913 8 50 8H14C12.4087 8 10.8826 8.63214 9.75736 9.75736C8.63214 10.8826 8 12.4087 8 14M56 14V32C56 33.5913 55.3679 35.1174 54.2426 36.2426C53.1174 37.3679 51.5913 38 50 38H14C12.4087 38 10.8826 37.3679 9.75736 36.2426C8.63214 35.1174 8 33.5913 8 32V14" stroke="#D3222A" stroke-width="3" stroke-linecap="round" stroke-linejoin="round"/>
</svg>
