<svg width="154" height="111" viewBox="0 0 154 111" fill="none" xmlns="http://www.w3.org/2000/svg">
<path d="M99.0469 110.828L145.219 110.828C147.668 110.828 150.017 109.855 151.748 108.123C153.48 106.392 154.453 104.043 154.453 101.594L154.453 52.3438C154.453 49.8946 153.48 47.5459 151.748 45.8141C150.017 44.0823 147.668 43.1094 145.219 43.1094L95.9688 43.1094L95.9688 33.875C95.9688 26.5277 98.8875 19.4813 104.083 14.2859C109.278 9.0906 116.325 6.17189 123.672 6.17189C124.488 6.17189 125.271 5.84759 125.848 5.27033C126.426 4.69307 126.75 3.91013 126.75 3.09376C126.75 2.27739 126.426 1.49446 125.848 0.917196C125.271 0.33994 124.488 0.0156376 123.672 0.0156376C114.692 0.0156368 106.08 3.58295 99.7297 9.93282C93.3798 16.2827 89.8125 24.8949 89.8125 33.875L89.8125 101.594C89.8125 104.043 90.7854 106.392 92.5172 108.123C94.249 109.855 96.5978 110.828 99.0469 110.828ZM95.9688 49.2656L145.219 49.2656C146.035 49.2656 146.818 49.5899 147.395 50.1672C147.973 50.7445 148.297 51.5274 148.297 52.3438L148.297 101.594C148.297 102.41 147.973 103.193 147.395 103.77C146.818 104.348 146.035 104.672 145.219 104.672L99.0469 104.672C98.2305 104.672 97.4476 104.348 96.8703 103.77C96.293 103.193 95.9687 102.41 95.9687 101.594L95.9688 49.2656ZM9.78123 110.828L55.9531 110.828C58.4022 110.828 60.751 109.855 62.4828 108.123C64.2146 106.392 65.1875 104.043 65.1875 101.594L65.1875 52.3437C65.1875 49.8946 64.2146 47.5458 62.4828 45.8141C60.751 44.0823 58.4022 43.1094 55.9531 43.1094L6.70312 43.1094L6.70312 33.875C6.70312 26.5277 9.62183 19.4813 14.8172 14.2859C20.0125 9.09059 27.0589 6.17188 34.4063 6.17188C35.2226 6.17188 36.0056 5.84758 36.5828 5.27032C37.1601 4.69306 37.4844 3.91012 37.4844 3.09376C37.4844 2.27739 37.1601 1.49445 36.5828 0.917188C36.0056 0.339933 35.2226 0.0156298 34.4063 0.0156298C25.4262 0.015629 16.8139 3.58294 10.4641 9.93281C4.11419 16.2827 0.546867 24.8949 0.546866 33.875L0.546861 101.594C0.54686 104.043 1.51978 106.392 3.25156 108.123C4.98334 109.855 7.33212 110.828 9.78123 110.828ZM6.70312 49.2656L55.9531 49.2656C56.7695 49.2656 57.5524 49.5899 58.1297 50.1672C58.7069 50.7444 59.0312 51.5274 59.0312 52.3437L59.0312 101.594C59.0312 102.41 58.7069 103.193 58.1297 103.77C57.5524 104.348 56.7695 104.672 55.9531 104.672L9.78124 104.672C8.96487 104.672 8.18193 104.348 7.60468 103.77C7.02742 103.193 6.70311 102.41 6.70311 101.594L6.70312 49.2656Z" fill="#374151"/>
</svg>
